<svg preserveAspectRatio="none" width="100%" height="100%" overflow="visible" style="display: block;" viewBox="0 0 30 30" fill="none" xmlns="http://www.w3.org/2000/svg">
<g id="Github">
<path id="Vector" d="M13.3027 19.8802C10.4668 19.5393 8.46874 17.5153 8.46874 14.8947C8.46874 13.8295 8.85547 12.679 9.5 11.912C9.22071 11.2089 9.26368 9.71756 9.58593 9.09971C10.4453 8.99318 11.6055 9.44058 12.293 10.0584C13.1094 9.80278 13.9687 9.67495 15.0215 9.67495C16.0742 9.67495 16.9336 9.80278 17.707 10.0371C18.3731 9.44058 19.5547 8.99318 20.4141 9.09971C20.7148 9.67495 20.7578 11.1663 20.4785 11.8907C21.166 12.7003 21.5312 13.7869 21.5312 14.8947C21.5312 17.5153 19.5332 19.4967 16.6543 19.8589C17.3848 20.3276 17.8789 21.3503 17.8789 22.5221V24.7378C17.8789 25.377 18.416 25.7392 19.0605 25.4835C22.9492 24.0134 26 20.1572 26 15.3848C26 9.35536 21.0586 4.43384 14.9785 4.43384C8.89844 4.43383 4 9.35536 4 15.3848C4 20.1146 7.02929 24.0347 11.1113 25.5048C11.6914 25.7179 12.25 25.3344 12.25 24.7591V23.0547C11.9492 23.1825 11.5625 23.2678 11.2187 23.2678C9.80077 23.2678 8.96289 22.5008 8.36132 21.0733C8.125 20.4981 7.8672 20.1572 7.37305 20.0933C7.11525 20.072 7.02929 19.9654 7.02929 19.8376C7.02929 19.5819 7.45898 19.3902 7.88868 19.3902C8.51173 19.3902 9.04882 19.7737 9.60742 20.562C10.0371 21.1798 10.4883 21.4568 11.0254 21.4568C11.5625 21.4568 11.9062 21.2651 12.4004 20.775C12.7656 20.4128 13.0449 20.0933 13.3027 19.8802Z" fill="var(--fill-0, white)"/>
</g>
</svg>
