<svg preserveAspectRatio="none" width="100%" height="100%" overflow="visible" style="display: block;" viewBox="0 0 30 30" fill="none" xmlns="http://www.w3.org/2000/svg">
<g id="Linkin">
<path id="Vector" d="M23.5 16.8092V23H19.8543V17.2219C19.8543 15.7689 19.3261 14.7795 18.0056 14.7795C17.0008 14.7795 16.398 15.4466 16.1339 16.0912C16.0363 16.323 16.0133 16.6396 16.0133 16.9675V22.9943H12.3676C12.3676 22.9943 12.4193 13.2134 12.3676 12.2014H16.0133V13.7336C16.0133 13.7336 15.9961 13.7562 15.9904 13.7675H16.0133V13.7336C16.4956 12.9986 17.3625 11.9527 19.2974 11.9527C21.6972 11.9527 23.4943 13.4961 23.4943 16.8092H23.5ZM8.56113 7C7.31527 7 6.5 7.80848 6.5 8.86572C6.5 9.92297 7.2923 10.7314 8.5152 10.7314H8.53816C9.80699 10.7314 10.5993 9.90035 10.5993 8.86572C10.5763 7.80848 9.80699 7 8.56113 7ZM6.71817 23H10.3639V12.2014H6.71817V23Z" fill="var(--fill-0, white)"/>
</g>
</svg>
