<svg preserveAspectRatio="none" width="100%" height="100%" overflow="visible" style="display: block;" viewBox="0 0 30 30" fill="none" xmlns="http://www.w3.org/2000/svg">
<g id="Behance">
<path id="Vector" d="M21.2152 11.5037C15.9801 11.5037 15.9735 16.719 15.9735 16.7454C15.9735 16.7454 15.6175 21.9673 21.2152 21.9673C21.2152 21.9673 25.8833 22.231 25.8833 18.3344H23.4833C23.4833 18.3344 23.5625 19.8047 21.2943 19.8047C21.2943 19.8047 18.8944 19.9629 18.8944 17.4311H25.9624C25.9624 17.4311 26.7404 11.5037 21.2152 11.5037ZM18.8746 15.5981C18.8746 15.5981 19.1647 13.5014 21.2746 13.5014C23.3844 13.5014 23.3515 15.5981 23.3515 15.5981H18.8746ZM12.8812 14.2597C12.8812 14.2597 14.9581 14.108 14.9581 11.6619C14.9581 9.21576 13.2571 8.02896 11.101 8.02896H4V21.6772H11.101C11.101 21.6772 15.4395 21.8091 15.4395 17.6487C15.4395 17.6487 15.6241 14.2597 12.8812 14.2597ZM7.13184 10.4553H11.101C11.101 10.4553 12.0637 10.4553 12.0637 11.8795C12.0637 13.3036 11.4966 13.508 10.8571 13.508H7.13184V10.4553ZM10.9032 19.2508H7.13184V15.5981H11.101C11.101 15.5981 12.545 15.5849 12.5384 17.4772C12.5384 19.0728 11.4703 19.2376 10.9032 19.2508ZM18.2812 8.83335V10.5147H23.9119V8.83335H18.2812Z" fill="var(--fill-0, white)"/>
</g>
</svg>
