<?xml version="1.0" encoding="UTF-8"?>
<svg id="_圖層_1" xmlns="http://www.w3.org/2000/svg" version="1.1" viewBox="0 0 28 29">
  <!-- Generator: Adobe Illustrator 30.4.0, SVG Export Plug-In . SVG Version: 2.1.4 Build 226)  -->
  <defs>
    <style>
      .st0 {
        fill: #333944;
        stroke: #fff;
        stroke-miterlimit: 10;
      }
    </style>
  </defs>
  <path class="st0" d="M25.6,6.4c1-1,1-2.5,0-3.5s-2.5-1-3.5,0l-8.1,8.1L5.9,2.9c-1-1-2.5-1-3.5,0s-1,2.5,0,3.5l8.1,8.1L2.4,22.6c-1,1-1,2.5,0,3.5s2.5,1,3.5,0l8.1-8.1,8.1,8.1c1,1,2.5,1,3.5,0s1-2.5,0-3.5l-8.1-8.1s8.1-8.1,8.1-8.1Z"/>
</svg>