<svg width="1440" height="810" viewBox="0 0 1440 810" fill="none" xmlns="http://www.w3.org/2000/svg">
<g clip-path="url(#clip0_204_260)">
<g opacity="0.7" clip-path="url(#clip1_204_260)">
<path d="M-420.073 709.423C-285.195 715.939 -152.284 686.275 -47.9957 626.391C14.9822 590.221 72.1239 541.879 151.496 533.231C209.67 526.896 270.24 543.28 329.955 549.138C409.477 556.943 489.524 545.54 556.656 516.854C617.675 490.776 673.979 449.637 746.252 453.209C820.045 456.854 880.675 505.539 941.681 543.079C1095.32 637.655 1300.06 673.45 1474.82 636.275C1529.73 624.589 1582.94 605.433 1620.01 572.474C1686.3 513.554 1688.95 419.824 1653.46 339.339C1617.97 258.869 1550.13 188.292 1483.51 119.514" stroke="#EEEEEF" stroke-miterlimit="10"/>
<path d="M1491.13 116.349C1555.02 186.722 1622.4 256.644 1658.91 335.72C1695.83 415.025 1696.44 506.532 1633 566.681C1604.77 593.537 1565.04 611.572 1522.08 623.472C1511.06 626.524 1499.85 629.157 1488.56 631.438C1453.37 638.563 1417.03 642.368 1380.46 643.267C1252.62 646.328 1119.59 615.433 1004.41 558.031C987.719 549.7 971.421 540.819 955.64 531.417C916.637 508.19 877.777 481.056 835.912 463.771C811.552 453.636 786.171 446.832 759.081 446.025C700.486 444.199 652.293 471.486 603.475 496.014C592.443 501.554 581.371 506.969 570.145 511.871C513.723 536.568 448.306 549.162 381.615 547.672C368.789 547.388 355.907 546.572 343.056 545.246C309.607 541.806 275.923 535.013 242.515 530.893C216 527.623 189.701 526.046 163.847 528.867C84.2189 537.555 26.2107 585.603 -37.5379 621.2C-82.1311 646.093 -131.93 665.214 -184.286 677.848C-255.497 695.043 -331.693 700.678 -406.748 694.55" stroke="#EEEEEF" stroke-miterlimit="10"/>
<path d="M1498.73 113.168C1559.92 185.139 1626.56 254.469 1664.35 332.085C1702.42 410.271 1706.56 499.494 1645.97 560.858C1619.04 588.352 1579.29 606.93 1536.04 618.777C1524.95 621.812 1513.66 624.397 1502.3 626.576C1466.89 633.387 1430.33 636.492 1393.89 636.575C1266.39 636.729 1135.24 603.175 1018.87 545.978C1002.04 537.696 985.592 528.937 969.627 519.72C930.136 496.974 890.69 470.931 848.656 454.711C824.225 445.292 798.901 439.077 771.943 438.792C713.708 438.063 665.658 465.763 616.962 490.714C605.955 496.361 594.899 501.853 583.699 506.862C527.178 532.172 461.779 545.493 394.943 543.91C382.051 543.595 369.127 542.726 356.217 541.342C322.648 537.729 288.827 530.686 255.268 526.5C228.639 523.173 202.211 521.651 176.237 524.501C96.366 533.247 37.4775 580.983 -27.0419 616.006C-72.2128 640.502 -122.67 658.844 -175.172 670.063C-246.095 685.216 -321.21 688.155 -393.384 679.673" stroke="#EEEEEF" stroke-miterlimit="10"/>
<path d="M1506.35 109.991C1564.81 183.558 1630.88 252.279 1669.81 328.455C1709.16 405.499 1716.5 492.325 1658.95 555.049C1633.21 583.115 1593.51 602.299 1550 614.096C1538.83 617.128 1527.45 619.634 1516.03 621.725C1480.36 628.231 1443.61 630.627 1407.29 629.89C1280.13 627.136 1150.85 590.903 1033.3 533.928C1016.32 525.684 999.71 517.041 983.56 508.022C943.565 485.741 903.597 460.761 861.323 445.661C836.832 436.917 811.571 431.337 784.724 431.583C726.85 431.951 678.939 460.078 630.355 485.42C619.36 491.157 608.333 496.743 597.14 501.856C540.535 527.796 475.14 541.826 408.18 540.141C395.235 539.814 382.235 538.883 369.27 537.428C335.563 533.637 301.64 526.353 267.931 522.101C241.169 518.712 214.63 517.25 188.522 520.111C108.409 528.914 48.6397 576.339 -16.6506 610.788C-62.403 634.899 -113.501 652.468 -166.162 662.253C-236.785 675.382 -310.852 675.616 -380.107 664.773" stroke="#EEEEEF" stroke-miterlimit="10"/>
<path d="M1513.96 106.816C1569.72 181.982 1635.21 250.091 1675.26 324.826C1715.92 400.719 1726.58 485.276 1671.94 549.247C1647.46 577.929 1607.77 597.679 1563.97 609.436C1552.73 612.451 1541.28 614.909 1529.77 616.894C1493.87 623.085 1456.91 624.781 1420.72 623.228C1293.9 617.553 1166.5 578.673 1047.77 521.919C1030.66 513.715 1013.87 505.186 997.534 496.378C957.049 474.579 916.533 450.627 874.053 436.656C849.524 428.578 824.294 423.682 797.569 424.419C740.08 425.992 692.265 454.435 643.811 480.172C632.845 486.004 621.826 491.693 610.645 496.896C553.937 523.463 488.563 538.205 421.459 536.429C408.444 536.084 395.403 535.1 382.382 533.574C348.533 529.618 314.495 522.075 280.657 517.748C253.761 514.298 227.112 512.895 200.884 515.784C120.514 524.627 59.8605 571.754 -6.16221 605.625C-52.475 629.342 -104.213 646.137 -157.074 654.494C-227.357 665.593 -300.394 663.117 -366.768 649.919" stroke="#EEEEEF" stroke-miterlimit="10"/>
<path d="M1521.58 103.641C1574.63 180.408 1639.55 247.909 1680.7 321.195C1722.69 395.954 1736.64 478.21 1684.92 543.441C1661.7 572.74 1622.02 593.057 1577.93 604.76C1566.62 607.759 1555.09 610.169 1543.5 612.047C1507.35 617.933 1470.19 618.92 1434.13 616.564C1307.65 607.979 1182.14 566.438 1062.21 509.888C1044.96 501.734 1028.01 493.322 1011.5 484.703C970.508 463.381 929.491 440.484 886.774 427.62C862.185 420.218 837.015 415.97 810.408 417.212C753.275 419.896 705.603 448.752 657.258 474.894C646.321 480.82 635.313 486.6 624.14 491.906C567.351 519.09 501.981 534.542 434.75 532.677C421.685 532.307 408.585 531.265 395.488 529.677C361.501 525.543 327.34 517.768 293.355 513.362C266.344 509.854 239.55 508.502 213.218 511.424C132.605 520.325 71.0713 567.141 4.27748 600.438C-42.6132 623.757 -94.9439 639.804 -148.016 646.714C-217.933 655.819 -289.968 650.596 -353.46 635.042" stroke="#EEEEEF" stroke-miterlimit="10"/>
<path d="M1529.2 100.466C1579.53 178.83 1643.9 245.727 1686.16 317.581C1729.46 391.205 1746.71 471.174 1697.92 537.639C1675.95 567.568 1636.28 588.437 1591.91 600.087C1580.53 603.082 1568.92 605.417 1557.24 607.203C1520.86 612.774 1483.51 613.065 1447.54 609.884C1321.41 598.376 1197.79 554.173 1076.65 497.841C1059.26 489.723 1042.16 481.432 1025.45 473.007C983.972 452.168 942.423 430.304 899.466 418.56C874.839 411.825 849.711 408.22 823.214 409.994C766.455 413.794 718.909 443.06 670.676 469.593C659.751 475.609 648.772 481.483 637.625 486.898C580.751 514.713 515.385 530.874 448.026 528.921C434.891 528.533 421.732 527.434 408.601 525.765C374.494 521.458 340.196 513.433 306.082 508.952C278.934 505.396 252.029 504.103 225.584 507.027C144.711 515.981 82.3141 562.49 14.7491 595.213C-32.7195 618.134 -85.6251 633.438 -138.927 638.896C-208.459 646.01 -279.53 638.046 -340.119 620.125" stroke="#EEEEEF" stroke-miterlimit="10"/>
<path d="M1536.82 97.2881C1584.44 177.253 1648.25 243.527 1691.61 313.949C1736.26 386.429 1756.8 464.123 1710.92 531.83C1690.2 562.388 1650.54 583.811 1605.89 595.421C1594.42 598.395 1582.73 600.682 1570.99 602.365C1534.36 607.631 1496.81 607.212 1460.98 603.215C1335.18 588.797 1213.45 541.931 1091.13 485.821C1073.61 477.758 1056.33 469.58 1039.44 461.34C997.473 440.969 955.392 420.138 912.205 409.546C887.535 403.492 862.449 400.531 836.067 402.824C779.682 407.739 732.263 437.414 684.159 464.343C673.263 470.454 662.279 476.414 651.156 481.936C594.095 510.285 528.836 527.253 461.336 525.194C448.132 524.789 434.931 523.636 421.728 521.892C387.483 517.407 353.083 509.141 318.818 504.593C291.538 500.976 264.522 499.743 237.939 502.691C156.828 511.689 93.5465 557.9 25.2107 590.049C-22.8394 612.585 -76.3199 627.144 -129.848 631.137C-198.985 636.291 -269.079 625.544 -326.79 605.279" stroke="#EEEEEF" stroke-miterlimit="10"/>
<path d="M1544.45 94.1089C1589.34 175.671 1652.63 241.348 1697.07 310.314C1743.06 381.663 1766.9 457.08 1723.92 526.016C1704.48 557.195 1664.81 579.166 1619.87 590.736C1608.33 593.706 1596.57 595.918 1584.76 597.513C1547.9 602.464 1510.12 601.399 1474.42 596.527C1348.95 579.395 1229.1 529.664 1105.6 473.764C1087.94 465.737 1070.5 457.677 1053.44 449.639C1010.96 429.747 968.386 409.958 924.941 400.483C900.216 395.092 875.172 392.775 848.919 395.604C792.908 401.635 745.615 431.719 697.623 459.04C686.739 465.241 675.767 471.29 664.67 476.921C607.51 505.882 542.273 523.564 474.643 521.431C461.389 520.999 448.112 519.784 434.868 517.987C400.485 513.324 365.967 504.812 331.551 500.199C304.155 496.525 277.012 495.346 250.308 498.323C168.955 507.379 104.793 553.277 35.6868 584.851C-12.941 606.989 -66.9651 620.826 -120.753 623.344C-189.461 626.547 -258.613 613.007 -313.441 590.386" stroke="#EEEEEF" stroke-miterlimit="10"/>
<path d="M1552.08 90.9144C1594.26 174.077 1657 239.135 1702.54 306.662C1749.87 376.865 1777.01 450.023 1736.93 520.183C1718.74 551.992 1679.09 574.516 1633.86 586.032C1622.25 588.986 1610.41 591.15 1598.51 592.638C1561.41 597.27 1523.43 595.522 1487.86 589.819C1362.73 569.789 1244.78 517.369 1120.07 461.7C1102.29 453.728 1084.68 445.785 1067.42 437.942C1024.45 418.532 981.366 399.769 937.678 391.429C912.914 386.704 887.913 385.032 861.792 388.383C806.142 395.513 758.971 426.02 711.106 453.749C700.251 460.045 689.29 466.185 678.202 471.918C620.944 501.493 555.725 519.902 487.955 517.663C474.631 517.214 461.313 515.946 447.996 514.073C413.489 509.25 378.838 500.474 344.294 495.786C316.765 492.05 289.511 490.931 262.687 493.937C181.075 503.046 116.05 548.636 46.1734 579.635C-3.01451 601.378 -57.5897 614.519 -111.647 615.532C-179.916 616.814 -248.157 600.46 -300.063 575.475" stroke="#EEEEEF" stroke-miterlimit="10"/>
<path d="M1559.7 87.7313C1599.18 172.494 1661.4 236.941 1708 303.02C1756.69 372.082 1787.13 442.961 1749.92 514.342C1733 546.784 1693.35 569.857 1647.84 581.319C1636.15 584.269 1624.23 586.371 1612.25 587.753C1574.92 592.084 1536.72 589.621 1501.3 583.102C1376.5 560.16 1260.44 505.076 1134.56 449.618C1116.63 441.682 1098.86 433.857 1081.41 426.212C1037.94 407.267 994.358 389.547 950.409 382.338C925.628 378.271 900.645 377.266 874.638 381.136C819.366 389.369 772.318 420.299 724.567 448.419C713.74 454.809 702.792 461.038 691.711 466.875C634.351 497.077 569.155 516.199 501.258 513.872C487.882 513.41 474.487 512.08 461.133 510.141C426.488 505.14 391.719 496.118 357.024 491.364C329.363 487.567 301.999 486.507 275.058 489.528C193.208 498.681 127.282 543.967 56.6697 574.4C6.9006 595.757 -48.1869 608.198 -102.549 607.696C-170.347 607.078 -237.687 587.878 -286.709 560.535" stroke="#EEEEEF" stroke-miterlimit="10"/>
<path d="M1567.33 84.5467C1604.08 170.905 1665.81 234.745 1713.46 299.376C1763.54 367.299 1797.24 435.923 1762.92 508.513C1747.28 541.589 1707.6 565.207 1661.82 576.632C1650.06 579.566 1638.05 581.602 1626.01 582.895C1588.43 586.907 1550.03 583.747 1514.72 576.42C1390.25 550.575 1276.09 492.805 1149.01 437.566C1130.95 429.667 1113.01 421.96 1095.39 414.517C1051.44 396.056 1007.35 379.348 963.15 373.287C938.33 369.888 913.39 369.528 887.494 373.93C832.601 383.266 785.679 414.604 738.054 443.133C727.236 449.626 716.317 455.951 705.265 461.882C647.808 492.696 582.63 512.546 514.593 510.113C501.151 509.621 487.715 508.237 474.285 506.235C439.503 501.056 404.632 491.793 369.787 486.973C342.011 483.119 314.515 482.128 287.441 485.159C205.349 494.37 138.543 539.343 67.1606 569.2C16.8142 590.158 -38.7758 601.929 -93.4386 599.899C-160.769 597.395 -227.203 575.335 -273.342 545.633" stroke="#EEEEEF" stroke-miterlimit="10"/>
<path d="M1574.96 81.3609C1609 169.32 1670.22 232.534 1718.92 295.729C1770.38 362.514 1807.37 428.871 1775.93 502.681C1761.56 536.405 1721.88 560.557 1675.81 571.928C1663.99 574.845 1651.9 576.833 1639.77 578.02C1601.95 581.73 1563.35 577.856 1528.17 569.711C1404.04 540.953 1291.76 480.516 1163.5 425.501C1145.3 417.657 1127.2 410.067 1109.38 402.805C1064.92 384.823 1020.34 369.131 975.876 364.229C951.022 361.484 926.103 361.778 900.336 366.716C845.804 377.151 799.023 408.916 751.511 437.836C740.722 444.424 729.814 450.838 718.771 456.872C661.23 488.318 596.044 508.859 527.894 506.355C514.399 505.85 500.887 504.405 487.419 502.336C452.517 496.983 417.511 487.47 382.537 482.575C354.629 478.66 327.022 477.728 299.828 480.788C217.478 490.051 149.809 534.715 77.6598 563.983C26.7361 584.542 -29.36 595.657 -84.3158 592.071C-151.151 587.716 -216.729 562.769 -259.962 530.699" stroke="#EEEEEF" stroke-miterlimit="10"/>
<path d="M1582.59 78.1739C1613.91 167.728 1674.65 230.339 1724.38 292.094C1777.24 357.73 1817.5 421.83 1788.93 496.86C1775.85 531.221 1736.15 555.918 1689.8 567.235C1677.9 570.148 1665.73 572.075 1653.52 573.155C1615.46 576.546 1576.66 571.975 1541.6 563.008C1417.79 531.333 1307.42 468.236 1177.98 413.432C1159.64 405.624 1141.38 398.152 1123.38 391.089C1078.43 373.577 1033.34 358.911 988.626 355.158C963.738 353.068 938.857 354.019 913.205 359.477C859.052 371.015 812.394 403.202 764.992 432.527C754.215 439.204 743.319 445.708 732.301 451.851C674.663 483.909 609.495 505.177 541.206 502.568C527.645 502.032 514.092 500.533 500.547 498.403C465.508 492.872 430.383 483.113 395.259 478.152C367.219 474.175 339.502 473.303 312.187 476.391C229.6 485.699 161.048 530.062 88.1283 558.755C36.6448 578.918 -19.961 589.39 -75.2271 584.244C-141.575 578.065 -206.266 550.194 -246.615 515.764" stroke="#EEEEEF" stroke-miterlimit="10"/>
<path d="M1590.22 74.9863C1618.83 166.141 1679.08 228.116 1729.85 288.444C1784.12 352.936 1827.65 414.792 1801.94 491.023C1790.13 526.018 1750.43 551.249 1703.79 562.539C1691.8 565.432 1679.58 567.3 1667.28 568.288C1628.99 571.376 1589.98 566.091 1555.04 556.307C1431.58 521.719 1323.1 455.944 1192.46 401.359C1173.98 393.602 1155.56 386.248 1137.39 379.388C1091.93 362.355 1046.35 348.693 1001.39 346.103C976.469 344.667 951.628 346.277 926.087 352.266C872.295 364.903 825.76 397.513 778.489 427.233C767.741 434.004 756.854 440.612 745.847 446.844C688.108 479.529 622.963 501.511 554.552 498.8C540.938 498.251 527.326 496.695 513.727 494.493C478.547 488.798 443.303 478.793 408.054 473.744C379.895 469.723 352.055 468.893 324.623 471.996C241.795 481.361 172.363 525.411 98.6737 553.527C46.6093 573.304 -10.4926 583.151 -66.0614 576.417C-131.929 568.44 -195.744 537.614 -233.191 500.83" stroke="#EEEEEF" stroke-miterlimit="10"/>
<path d="M1597.86 71.7978C1623.75 164.552 1683.53 225.91 1735.3 284.789C1790.99 348.122 1837.78 407.733 1814.94 485.165C1804.42 520.798 1764.69 546.574 1717.77 557.81C1705.71 560.699 1693.39 562.502 1681.05 563.391C1642.51 566.16 1603.3 560.178 1568.5 549.576C1445.37 512.056 1338.79 443.635 1206.95 389.271C1188.35 381.555 1169.74 374.314 1151.39 367.653C1105.44 351.104 1059.36 338.441 1014.13 337.01C989.175 336.228 964.359 338.478 938.943 345.018C885.517 358.741 839.119 391.791 791.978 421.905C781.243 428.767 770.384 435.469 759.386 441.805C701.563 475.12 636.424 497.812 567.886 495.012C554.203 494.447 540.533 492.833 526.878 490.56C491.561 484.686 456.216 474.44 420.818 469.325C392.526 465.243 364.575 464.472 337.006 467.599C253.92 477.017 183.608 520.753 109.166 548.297C56.5246 567.675 -1.06718 576.94 -56.9485 568.588C-122.305 558.836 -185.261 525.05 -219.819 485.892" stroke="#EEEEEF" stroke-miterlimit="10"/>
<path d="M1605.49 68.6089C1628.66 162.959 1688 223.681 1740.76 281.137C1797.88 343.312 1847.93 400.69 1827.95 479.324C1818.72 515.609 1778.97 541.916 1731.79 553.101C1719.66 555.973 1707.26 557.714 1694.83 558.511C1656.06 560.978 1616.64 554.281 1581.96 542.857C1459.17 502.423 1354.48 431.324 1221.47 377.184C1202.72 369.519 1183.97 362.386 1165.42 355.924C1118.97 339.854 1072.41 328.195 1026.92 327.941C1001.94 327.8 977.155 330.722 951.85 337.795C898.803 352.622 852.528 386.094 805.501 416.599C794.795 423.555 783.948 430.347 772.976 436.79C715.052 470.732 649.939 494.125 581.258 491.232C567.526 490.64 553.797 488.968 540.088 486.624C504.651 480.577 469.17 470.081 433.622 464.9C405.197 460.756 377.133 460.058 349.448 463.201C266.124 472.662 194.929 516.098 119.717 543.066C66.4984 562.043 8.4167 570.728 -47.7945 560.753C-112.665 549.247 -174.733 512.465 -206.389 470.951" stroke="#EEEEEF" stroke-miterlimit="10"/>
<path d="M1613.13 65.4194C1633.58 161.37 1692.47 221.464 1746.23 277.483C1804.78 338.504 1858.1 393.636 1840.94 473.477C1833 510.399 1793.24 537.251 1745.76 548.396C1733.56 551.264 1721.09 552.944 1708.58 553.633C1669.56 555.781 1629.94 548.386 1595.39 536.159C1472.93 492.792 1370.13 419.042 1235.93 365.113C1217.06 357.489 1198.13 350.484 1179.4 344.207C1132.47 328.608 1085.38 317.944 1039.64 318.866C1014.62 319.367 989.987 323.175 964.707 330.557C911.761 346.015 865.887 380.382 818.969 411.291C808.292 418.342 797.454 425.237 786.494 431.77C728.486 466.343 663.379 490.445 594.572 487.464C580.77 486.855 566.982 485.126 553.219 482.71C517.644 476.485 482.045 465.743 446.368 460.487C417.829 456.286 389.637 455.643 361.832 458.814C278.249 468.329 206.192 511.454 130.228 537.85C76.4457 556.445 17.853 564.559 -38.6632 552.937C-103.051 539.691 -164.245 499.895 -192.997 456.025" stroke="#EEEEEF" stroke-miterlimit="10"/>
<path d="M1620.75 62.2116C1638.48 159.759 1696.93 219.216 1751.68 273.812C1811.68 333.664 1868.27 386.581 1853.94 467.615C1847.31 505.18 1807.5 532.571 1759.75 543.662C1747.47 546.513 1734.92 548.145 1722.33 548.728C1683.08 550.573 1643.25 542.464 1608.83 529.418C1486.72 483.123 1385.81 406.721 1250.41 353.013C1231.4 345.426 1212.3 338.539 1193.39 332.461C1145.96 317.345 1098.38 307.668 1052.39 309.767C1027.32 310.905 1002.61 315.171 977.568 323.304C925.251 340.303 879.251 374.655 832.446 405.955C821.781 413.096 810.972 420.085 800.02 426.722C741.911 461.921 676.827 486.737 607.881 483.651C594.027 483.029 580.18 481.241 566.362 478.755C530.646 472.365 494.932 461.364 459.123 456.046C430.451 451.784 402.149 451.201 374.228 454.387C290.409 463.945 217.468 506.769 140.734 532.588C86.3746 550.784 27.277 558.37 -29.5366 545.075C-93.4487 530.115 -153.743 487.282 -179.611 441.051" stroke="#EEEEEF" stroke-miterlimit="10"/>
<path d="M1628.38 59.0211C1643.4 158.168 1701.42 216.976 1757.15 270.17C1818.61 328.845 1878.44 379.538 1866.96 461.77C1861.61 499.972 1821.79 527.908 1773.75 538.944C1761.4 541.779 1748.76 543.344 1736.1 543.838C1696.6 545.364 1656.57 536.557 1622.27 522.69C1500.51 473.466 1401.49 394.398 1264.91 340.915C1245.75 333.379 1226.51 326.614 1207.41 320.734C1159.48 306.099 1111.4 297.408 1065.15 300.685C1040.05 302.464 1015.36 307.385 990.443 316.068C938.492 334.153 892.615 368.927 845.955 400.64C835.316 407.888 824.523 414.954 813.579 421.695C755.386 457.524 690.308 483.051 621.236 479.876C607.315 479.223 593.411 477.378 579.533 474.834C543.698 468.27 507.866 457.023 471.889 451.636C443.086 447.311 414.673 446.788 386.632 450.002C302.572 459.618 228.751 502.128 151.251 527.357C96.3149 545.152 36.6914 552.22 -20.3984 537.243C-83.8427 520.596 -143.234 474.711 -166.212 426.107" stroke="#EEEEEF" stroke-miterlimit="10"/>
<path d="M1636.02 55.8304C1648.33 156.578 1705.92 214.722 1762.61 266.515C1825.54 323.999 1888.63 372.485 1879.97 455.923C1875.94 494.768 1836.05 523.24 1787.74 534.24C1775.31 537.066 1762.6 538.574 1749.86 538.962C1710.13 540.186 1669.89 530.663 1635.72 515.978C1514.29 463.821 1417.17 382.105 1279.4 328.829C1260.12 321.334 1240.7 314.683 1221.41 309.002C1172.99 294.838 1124.4 287.129 1077.9 291.614C1052.78 294.035 1028.11 299.624 1003.32 308.83C951.734 328.002 905.994 363.216 859.448 395.32C848.821 402.658 838.053 409.832 827.139 416.667C768.863 453.127 703.794 479.35 634.579 476.082C620.605 475.417 606.642 473.514 592.71 470.898C556.737 464.157 520.787 452.664 484.681 447.201C455.763 442.82 427.223 442.352 399.044 445.59C314.726 455.259 240.044 497.458 161.774 522.111C106.26 539.505 46.1033 546.083 -11.2553 529.395C-74.2354 511.075 -132.733 462.108 -152.808 411.146" stroke="#EEEEEF" stroke-miterlimit="10"/>
<path d="M1643.65 52.6392C1653.23 154.984 1710.44 212.471 1768.08 262.859C1832.49 319.155 1898.84 365.435 1892.98 450.075C1890.26 489.562 1850.34 518.561 1801.74 529.52C1789.23 532.33 1776.45 533.789 1763.63 534.07C1723.65 534.975 1683.22 524.741 1649.17 509.246C1528.08 454.147 1432.85 369.792 1293.88 316.737C1274.45 309.292 1254.87 302.745 1235.4 297.264C1186.47 283.579 1137.38 276.844 1090.65 282.525C1065.47 285.582 1040.86 291.834 1016.18 301.587C964.942 321.841 919.357 357.5 872.921 390.008C862.323 397.44 851.567 404.704 840.661 411.642C782.301 448.734 717.238 475.666 647.898 472.31C633.858 471.614 619.85 469.671 605.845 466.98C569.736 460.061 533.667 448.322 497.429 442.798C468.378 438.355 439.728 437.946 411.433 441.2C326.878 450.912 251.295 492.806 172.272 516.886C116.196 533.898 55.4878 539.98 -2.13566 521.569C-64.6938 501.594 -122.239 449.529 -139.427 396.206" stroke="#EEEEEF" stroke-miterlimit="10"/>
<path d="M1651.29 49.448C1658.16 153.393 1714.96 210.221 1773.55 259.203C1839.45 314.298 1909.03 358.38 1906 444.227C1904.58 484.356 1864.62 513.895 1815.74 524.8C1803.16 527.606 1790.29 528.986 1777.41 529.183C1737.2 529.785 1696.6 518.786 1662.64 502.523C1542.03 444.309 1448.55 357.469 1308.41 304.643C1288.84 297.235 1269.09 290.82 1249.46 285.528C1200.05 272.328 1150.44 266.561 1103.45 273.433C1078.23 277.115 1053.65 284.053 1029.1 294.343C978.224 315.683 932.776 351.782 886.454 384.681C875.885 392.208 865.151 399.593 854.243 406.603C795.903 444.423 730.743 471.968 661.263 468.506C647.154 467.793 633.09 465.779 619.045 463.034C582.798 455.936 546.611 443.952 510.227 438.348C481.044 433.844 452.28 433.508 423.869 436.777C339.074 446.546 262.61 488.126 182.818 511.628C126.164 528.241 64.8979 533.854 7.01334 513.706C-55.1228 492.075 -111.718 436.926 -126 381.232" stroke="#EEEEEF" stroke-miterlimit="10"/>
<path d="M1658.93 46.2564C1663.07 151.798 1719.48 207.944 1779.01 255.546C1846.41 309.427 1919.24 351.314 1919.01 438.377C1918.9 479.149 1878.9 509.228 1829.74 520.079C1817.09 522.868 1804.14 524.2 1791.18 524.29C1750.72 524.572 1709.92 512.875 1676.1 495.808C1555.83 434.677 1464.24 345.17 1322.91 292.552C1303.22 285.185 1283.3 278.888 1263.46 273.791C1213.55 261.057 1163.43 256.273 1116.21 264.346C1090.96 268.669 1066.4 276.261 1041.98 287.102C991.452 309.525 946.158 346.068 899.966 379.363C889.41 386.979 878.705 394.459 867.806 401.572C809.382 440.023 744.21 468.274 674.622 464.728C660.46 464.002 646.338 461.93 632.221 459.11C595.85 451.852 559.549 439.608 523.015 433.939C493.714 429.39 464.826 429.096 436.295 432.393C351.241 442.216 273.916 483.485 193.371 506.415C136.14 522.627 74.2944 527.781 16.1872 505.89C-45.5344 482.631 -101.186 424.352 -112.564 366.301" stroke="#EEEEEF" stroke-miterlimit="10"/>
<path d="M1666.56 43.0641C1667.99 150.207 1724 205.665 1784.48 251.888C1853.38 304.558 1929.47 344.251 1932.01 432.508C1933.21 473.923 1893.17 504.543 1843.72 515.352C1831 518.138 1817.98 519.394 1804.93 519.391C1764.24 519.371 1723.23 506.959 1689.52 489.069C1569.6 425.007 1479.9 332.834 1337.37 280.451C1317.53 273.134 1297.46 266.955 1277.43 262.057C1227.03 249.808 1176.38 245.975 1128.91 255.27C1103.62 260.217 1079.09 268.496 1054.82 279.865C1004.64 303.356 959.484 340.354 913.424 374.043C902.896 381.754 892.204 389.324 881.312 396.541C822.792 435.605 757.643 464.57 687.912 460.932C673.684 460.175 659.5 458.059 645.345 455.172C608.837 447.735 572.414 435.259 535.751 429.515C506.318 424.905 477.32 424.67 448.651 427.992C363.361 437.858 285.152 478.826 203.837 501.179C146.026 517.003 83.5795 521.708 25.2747 498.051C-36.0671 473.155 -90.7232 411.759 -99.2146 351.345" stroke="#EEEEEF" stroke-miterlimit="10"/>
<path d="M1674.2 39.8724C1672.92 148.617 1728.53 203.374 1789.93 248.227C1860.33 299.655 1939.66 337.18 1945.01 426.653C1947.52 468.697 1907.44 499.87 1857.71 510.626C1844.91 513.395 1831.81 514.603 1818.69 514.493C1777.75 514.153 1736.54 501.043 1702.96 482.334C1583.39 415.355 1495.58 320.515 1351.85 268.339C1331.89 261.064 1311.63 254.999 1291.44 250.304C1240.53 238.535 1189.37 235.672 1141.68 246.167C1116.34 251.752 1091.85 260.69 1067.7 272.609C1017.89 297.188 972.871 334.625 926.92 368.719C916.405 376.52 905.742 384.184 894.88 391.496C836.276 431.191 771.133 460.866 701.276 457.139C686.996 456.37 672.757 454.183 658.525 451.233C621.881 443.619 585.339 430.897 548.531 425.073C518.965 420.401 489.857 420.226 461.072 423.563C375.541 433.486 296.453 474.139 214.368 495.915C155.997 511.343 92.9287 515.607 34.4262 490.184C-26.5606 463.673 -80.1998 399.152 -85.8047 336.375" stroke="#EEEEEF" stroke-miterlimit="10"/>
<path d="M1681.83 36.6802C1677.82 147.022 1733.06 201.083 1795.39 244.582C1867.32 294.759 1949.87 330.126 1958.02 420.815C1961.86 463.506 1921.72 495.215 1871.71 505.916C1858.82 508.678 1845.64 509.824 1832.45 509.611C1791.28 508.969 1749.86 495.143 1716.4 475.612C1597.18 405.702 1511.24 308.203 1366.35 256.244C1346.24 249.019 1325.84 243.063 1305.45 238.563C1254.05 227.278 1202.36 225.367 1154.43 237.072C1129.02 243.276 1104.59 252.891 1080.56 265.362C1031.11 291.01 986.237 328.905 940.4 363.39C929.914 371.286 919.259 379.053 908.409 386.454C849.704 426.776 784.584 457.166 714.606 453.338C700.256 452.551 685.958 450.306 671.693 447.276C634.929 439.488 598.251 426.515 561.311 420.63C531.63 415.901 502.394 415.782 473.49 419.146C387.701 429.123 307.75 469.465 224.899 490.65C165.951 505.678 102.236 509.523 43.5784 482.316C-17.0534 454.19 -69.6893 386.524 -72.3901 321.389" stroke="#EEEEEF" stroke-miterlimit="10"/>
<path d="M1689.47 33.4741C1682.75 145.417 1737.6 198.75 1800.86 240.91C1874.31 289.836 1960.1 323.047 1971.04 414.949C1976.19 458.269 1936.01 490.532 1885.71 501.192C1872.75 503.937 1859.5 505.021 1846.22 504.715C1804.81 503.753 1763.19 489.229 1729.86 468.879C1610.98 396.051 1526.94 295.872 1380.85 244.147C1360.6 236.959 1340.03 231.134 1319.45 226.82C1267.55 216.002 1215.33 215.057 1167.19 227.98C1141.74 234.808 1117.34 245.11 1093.44 258.118C1044.34 284.848 999.62 323.188 953.897 358.064C943.441 366.054 932.781 373.907 921.956 381.417C863.168 422.37 798.054 453.47 727.933 449.549C713.534 448.735 699.174 446.446 684.837 443.341C647.935 435.374 611.157 422.16 574.066 416.209C544.253 411.419 514.904 411.372 485.883 414.752C399.858 424.772 319.006 464.809 235.403 485.42C175.874 500.061 111.516 503.474 52.6854 474.479C-7.6299 444.743 -59.2064 373.931 -59.0204 306.433" stroke="#EEEEEF" stroke-miterlimit="10"/>
<path d="M1697.11 30.2821C1687.66 143.823 1742.15 196.437 1806.33 237.253C1881.29 284.908 1970.56 315.966 1984.06 409.083C1990.63 453.031 1950.3 485.836 1899.71 496.455C1886.69 499.183 1873.35 500.218 1859.99 499.806C1818.35 498.528 1776.52 483.302 1743.33 462.133C1624.79 386.374 1542.64 283.539 1395.35 232.022C1374.98 224.89 1354.23 219.165 1333.48 215.068C1281.09 204.735 1228.33 204.737 1179.96 218.887C1154.45 226.336 1130.06 237.292 1106.33 250.86C1057.5 278.598 1013.01 317.445 967.413 352.743C956.965 360.837 946.338 368.77 935.521 376.383C876.636 417.95 811.545 449.765 741.298 445.755C726.83 444.925 712.415 442.565 698.036 439.406C660.994 431.274 624.101 417.801 586.865 411.77C556.92 406.918 527.46 406.931 498.302 410.335C412.019 420.409 330.304 460.135 245.932 480.169C185.825 494.409 120.782 497.408 61.8388 466.61C1.8227 435.259 -48.6981 361.315 -45.5866 291.449" stroke="#EEEEEF" stroke-miterlimit="10"/>
<path d="M1704.75 27.0894C1692.58 142.232 1746.68 194.118 1811.8 233.594C1888.28 279.971 1980.72 308.883 1997.07 403.229C2004.94 447.816 1964.57 481.162 1913.71 491.731C1900.62 494.455 1887.21 495.429 1873.78 494.914C1831.91 493.333 1789.86 477.391 1756.79 455.399C1638.6 376.721 1558.34 271.205 1409.87 219.927C1389.35 212.832 1368.46 207.243 1347.51 203.327C1294.61 193.474 1241.32 194.442 1192.74 209.798C1167.18 217.884 1142.84 229.5 1119.23 243.619C1070.76 272.458 1026.4 311.727 980.929 347.421C970.51 355.609 959.891 363.646 949.087 371.349C890.118 413.547 825.033 446.073 754.644 441.97C740.122 441.127 725.649 438.709 711.198 435.474C674.037 427.169 637.008 413.445 599.639 407.353C569.579 402.444 539.992 402.512 510.718 405.931C424.194 416.062 341.596 455.486 256.457 474.929C195.774 488.769 130.046 491.354 70.9854 458.767C11.2473 425.81 -38.1755 348.714 -32.1769 276.484" stroke="#EEEEEF" stroke-miterlimit="10"/>
<path d="M1712.38 23.8967C1697.51 140.642 1751.22 191.772 1817.27 229.935C1895.28 275.006 1990.88 301.813 2010.09 397.375C2019.25 442.6 1978.85 476.491 1927.71 487.019C1914.54 489.726 1901.04 490.634 1887.55 490.03C1845.43 488.13 1803.2 471.493 1770.24 448.691C1652.4 367.095 1574.03 258.91 1424.36 207.84C1403.71 200.782 1382.65 195.311 1361.51 191.594C1308.13 182.213 1254.25 184.089 1205.5 200.717C1179.87 209.392 1155.6 221.734 1132.11 236.386C1084 266.326 1039.78 306.022 994.424 342.107C984.017 350.385 973.428 358.517 962.649 366.328C903.58 409.153 838.518 442.393 768.007 438.189C753.419 437.315 738.901 434.857 724.396 431.551C687.097 423.068 649.95 409.097 612.452 402.93C582.26 397.96 552.563 398.087 523.169 401.535C436.408 411.709 352.927 450.832 267.036 469.702C205.793 483.145 139.341 485.322 80.1847 450.935C20.7073 416.368 -27.6 336.125 -18.7142 261.531" stroke="#EEEEEF" stroke-miterlimit="10"/>
<path d="M1720.02 20.7034C1681.52 279.582 1982.46 213.236 2023.09 391.515C2033.54 437.379 1993.12 471.815 1941.7 482.289C1887.12 493.398 1827.03 473.13 1783.67 441.947C1666.17 357.418 1589.67 246.574 1438.83 195.716C1365.5 170.997 1286.61 166.76 1218.24 191.599C1140.08 219.995 1075.28 282.423 1007.91 336.762C940.547 391.087 864.842 439.459 781.321 434.381C729.018 431.194 677.481 407.153 625.196 398.49C505.49 378.654 393.574 439.941 277.51 464.448C215.686 477.504 148.493 479.268 89.2797 443.077C30.0495 406.881 -17.1498 323.518 -5.3555 246.551" stroke="#EEEEEF" stroke-miterlimit="10"/>
</g>
</g>
<defs>
<clipPath id="clip0_204_260">
<rect width="1440" height="810" fill="white"/>
</clipPath>
<clipPath id="clip1_204_260">
<rect width="2488.3" height="1569.82" fill="white" transform="translate(-351.291 -446) rotate(3.45884)"/>
</clipPath>
</defs>
</svg>
