<svg width="50" height="50" viewBox="0 0 50 50" fill="none" xmlns="http://www.w3.org/2000/svg">
<path d="M0 11.4286C0 5.11675 5.11675 0 11.4286 0H38.5714C44.8833 0 50 5.11675 50 11.4286V38.5714C50 44.8833 44.8833 50 38.5714 50H11.4286C5.11675 50 0 44.8833 0 38.5714V11.4286Z" fill="#EEEEEF"/>
<g clip-path="url(#clip0_113_2836)">
<path d="M15.1984 8H16.7258V9.51406H18.1336V8H19.6609V12.582H18.1336V11.0547H16.7391V12.582H15.1984M21.6797 9.52734H20.3316V8H24.5617V9.52734H23.207V12.582H21.6797M25.2324 8H26.8328L27.8156 9.61367L28.7984 8H30.3988V12.582H28.8715V10.3109L27.8023 11.9578L26.7332 10.3109V12.582H25.2324M31.1558 8H32.6832V11.068H34.848V12.582H31.1558" fill="black"/>
<path d="M15.1453 39.2773L12.9539 14.6804H37.0461L34.8547 39.264L24.9801 42" fill="#E44D26"/>
<path d="M25 39.9082V16.6992H34.848L32.9688 37.6836" fill="#F16529"/>
<path d="M17.4297 19.7074H25V22.7222H20.7367L21.0156 25.8101H25V28.8183H18.2531M18.3859 30.3324H21.4141L21.6266 32.7429L25 33.6461V36.7937L18.8109 35.0672" fill="#EBEBEB"/>
<path d="M32.5437 19.7074H24.9867V22.7222H32.2648M31.9926 25.8101H24.9867V28.825H28.7054L28.3535 32.7429L24.9867 33.6461V36.7804L31.1625 35.0672" fill="white"/>
</g>
<defs>
<clipPath id="clip0_113_2836">
<rect width="34" height="34" fill="white" transform="translate(8 8)"/>
</clipPath>
</defs>
</svg>
