<svg width="50" height="50" viewBox="0 0 50 50" fill="none" xmlns="http://www.w3.org/2000/svg">
<path d="M0 11.4286C0 5.11675 5.11675 0 11.4286 0H38.5714C44.8833 0 50 5.11675 50 11.4286V38.5714C50 44.8833 44.8833 50 38.5714 50H11.4286C5.11675 50 0 44.8833 0 38.5714V11.4286Z" fill="#EEEEEF"/>
<g clip-path="url(#clip0_113_2810)">
<path d="M36.6679 8H13.3321C10.3873 8 8 10.3873 8 13.3321V36.6679C8 39.6127 10.3873 42 13.3321 42H36.6679C39.6127 42 42 39.6127 42 36.6679V13.3321C42 10.3873 39.6127 8 36.6679 8Z" fill="#011E36"/>
<path d="M14.6781 17.2649V32.5142H17.9137V27.7246H20.3085C23.1967 27.7246 25.5382 25.3832 25.5382 22.4949C25.5382 19.6067 23.1967 17.2653 20.3085 17.2653H14.6781V17.2649ZM19.823 24.8894H17.9133V20.0997H19.823C21.1458 20.0997 22.2178 21.1721 22.2178 22.4945C22.2178 23.8174 21.1454 24.8894 19.823 24.8894Z" fill="#2CABFE"/>
<path d="M34.644 21.2094V24.2417C33.6749 23.6356 32.8141 23.4551 32.2842 23.3938C31.7303 23.3299 30.7085 23.2121 30.3604 23.7546C30.3411 23.7848 30.2112 23.9932 30.2501 24.2515C30.3431 24.8748 31.3138 25.0986 32.2932 25.5492C33.1854 25.9598 34.7449 26.6773 35.192 27.9236C35.6411 29.1754 34.7963 30.4845 34.6676 30.6843C33.6341 32.2866 31.6985 32.5527 30.8302 32.672C29.1314 32.9056 27.7418 32.4487 26.9878 32.126V29.321C28.4908 29.7724 29.6201 29.922 30.3333 29.9769C30.9515 30.0244 31.6282 30.0295 31.8567 29.6507C31.9466 29.5016 31.9372 29.3422 31.9336 29.3006C31.894 28.8457 31.3201 28.5568 30.7329 28.2698C28.6729 27.2638 28.72 27.327 28.5112 27.1782C28.2203 26.9713 27.3893 26.3621 27.02 25.2489C26.9226 24.9557 26.6306 24.0305 27.0266 23.03C27.3807 22.135 28.0861 21.6816 28.4664 21.4375C30.7674 19.9592 34.1094 21.0312 34.6448 21.2102L34.644 21.2094Z" fill="#2CABFE"/>
</g>
<defs>
<clipPath id="clip0_113_2810">
<rect width="34" height="34" fill="white" transform="translate(8 8)"/>
</clipPath>
</defs>
</svg>
