<svg width="50" height="50" viewBox="0 0 50 50" fill="none" xmlns="http://www.w3.org/2000/svg">
<path d="M0 11.4286C0 5.11675 5.11675 0 11.4286 0H38.5714C44.8833 0 50 5.11675 50 11.4286V38.5714C50 44.8833 44.8833 50 38.5714 50H11.4286C5.11675 50 0 44.8833 0 38.5714V11.4286Z" fill="#EEEEEF"/>
<g clip-path="url(#clip0_113_2846)">
<path d="M28.9248 10.1836L24.999 17.0269L21.0731 10.1836H7.99939L24.999 39.8163L41.9985 10.1836H28.9248Z" fill="#41B883"/>
<path d="M28.9248 10.1835L24.9989 17.0269L21.0731 10.1835H14.7992L24.9989 27.9628L35.1987 10.1835H28.9248Z" fill="#34495E"/>
</g>
<defs>
<clipPath id="clip0_113_2846">
<rect width="34" height="29.633" fill="white" transform="translate(8 10.1835)"/>
</clipPath>
</defs>
</svg>
