<svg width="50" height="50" viewBox="0 0 50 50" fill="none" xmlns="http://www.w3.org/2000/svg">
<path d="M0 11.4286C0 5.11675 5.11675 0 11.4286 0H38.5714C44.8833 0 50 5.11675 50 11.4286V38.5714C50 44.8833 44.8833 50 38.5714 50H11.4286C5.11675 50 0 44.8833 0 38.5714V11.4286Z" fill="#EEEEEF"/>
<g clip-path="url(#clip0_113_2853)">
<path d="M27.04 36.1668H39.62C40.0215 36.1669 40.4057 36.0258 40.7533 35.8268C41.101 35.6279 41.4593 35.3781 41.66 35.0335C41.8607 34.6889 42.0001 34.2979 42 33.9C41.9999 33.5022 41.861 33.1114 41.66 32.7669L33.16 18.1468C32.9594 17.8023 32.7142 17.5524 32.3667 17.3535C32.0191 17.1546 31.5213 17.0135 31.12 17.0135C30.7187 17.0135 30.3342 17.1546 29.9867 17.3535C29.6391 17.5524 29.3939 17.8023 29.1933 18.1468L27.04 21.8868L22.7333 14.6332C22.5325 14.2887 22.2877 13.9257 21.94 13.7268C21.5924 13.528 21.2081 13.5002 20.8067 13.5002C20.4053 13.5002 20.021 13.528 19.6733 13.7268C19.3257 13.9257 18.9675 14.2887 18.7667 14.6332L8.22667 32.7669C8.02572 33.1114 8.00018 33.5022 8 33.9C7.99983 34.2979 8.02603 34.6888 8.22667 35.0334C8.42731 35.378 8.78568 35.6279 9.13333 35.8268C9.48099 36.0258 9.86521 36.1669 10.2667 36.1668H18.2C21.3435 36.1668 23.6315 34.7567 25.2267 32.0868L29.08 25.4002L31.12 21.8868L37.3533 32.5402H29.08L27.04 36.1668ZM18.0867 32.5402H12.5333L20.8067 18.2602L25 25.4002L22.2223 30.2423C21.163 31.9746 19.9552 32.5402 18.0867 32.5402Z" fill="#00DC82"/>
</g>
<defs>
<clipPath id="clip0_113_2853">
<rect width="34" height="23.12" fill="white" transform="translate(8 13.44)"/>
</clipPath>
</defs>
</svg>
