<svg width="50" height="50" viewBox="0 0 50 50" fill="none" xmlns="http://www.w3.org/2000/svg">
<path d="M0 11.4286C0 5.11675 5.11675 0 11.4286 0H38.5714C44.8833 0 50 5.11675 50 11.4286V38.5714C50 44.8833 44.8833 50 38.5714 50H11.4286C5.11675 50 0 44.8833 0 38.5714V11.4286Z" fill="#EEEEEF"/>
<path d="M13.678 36.3333C13.678 33.2037 16.2126 30.6666 19.339 30.6666H25V36.3333C25 39.4629 22.4655 42 19.339 42C16.2126 42 13.678 39.4629 13.678 36.3333Z" fill="#24CB71"/>
<path d="M25 8V19.3333H30.661C33.7874 19.3333 36.322 16.7963 36.322 13.6667C36.322 10.5371 33.7874 8 30.661 8H25Z" fill="#FF7237"/>
<path d="M30.6138 30.6667C33.7403 30.6667 36.2748 28.1297 36.2748 25C36.2748 21.8704 33.7403 19.3334 30.6138 19.3334C27.4874 19.3334 24.9529 21.8704 24.9529 25C24.9529 28.1297 27.4874 30.6667 30.6138 30.6667Z" fill="#00B6FF"/>
<path d="M13.678 13.6667C13.678 16.7963 16.2126 19.3333 19.339 19.3333H25V8H19.339C16.2126 8 13.678 10.5371 13.678 13.6667Z" fill="#FF3737"/>
<path d="M13.678 25C13.678 28.1296 16.2126 30.6667 19.339 30.6667H25V19.3334H19.339C16.2126 19.3334 13.678 21.8705 13.678 25Z" fill="#874FFF"/>
</svg>
