<svg width="50" height="50" viewBox="0 0 50 50" fill="none" xmlns="http://www.w3.org/2000/svg">
<path d="M0 11.4286C0 5.11675 5.11675 0 11.4286 0H38.5714C44.8833 0 50 5.11675 50 11.4286V38.5714C50 44.8833 44.8833 50 38.5714 50H11.4286C5.11675 50 0 44.8833 0 38.5714V11.4286Z" fill="#EEEEEF"/>
<g clip-path="url(#clip0_113_2816)">
<path d="M36.6679 8H13.3321C10.3873 8 8 10.3873 8 13.3321V36.6679C8 39.6127 10.3873 42 13.3321 42H36.6679C39.6127 42 42 39.6127 42 36.6679V13.3321C42 10.3873 39.6127 8 36.6679 8Z" fill="#2E0202"/>
<path d="M23.9347 17.9957H19.8414L14.6675 32.9773H18.4365L19.4139 29.4818H24.3625L25.7678 32.9773H29.6169L23.9351 17.9957H23.9347ZM20.2877 26.5889L21.8829 21.0319L23.6642 26.5889H20.2873H20.2877Z" fill="#FD9A00"/>
<path d="M34.0069 21.5838H30.5715V32.9773H34.0069V21.5838Z" fill="#FD9A00"/>
<path d="M32.9295 20.3349C33.8098 19.9813 34.2368 18.9811 33.8833 18.1008C33.5298 17.2204 32.5295 16.7934 31.6492 17.1469C30.7689 17.5005 30.3418 18.5007 30.6954 19.381C31.0489 20.2613 32.0491 20.6884 32.9295 20.3349Z" fill="#FD9A00"/>
</g>
<defs>
<clipPath id="clip0_113_2816">
<rect width="34" height="34" fill="white" transform="translate(8 8)"/>
</clipPath>
</defs>
</svg>
