<svg width="50" height="50" viewBox="0 0 50 50" fill="none" xmlns="http://www.w3.org/2000/svg">
<path d="M0 11.4286C0 5.11675 5.11675 0 11.4286 0H38.5714C44.8833 0 50 5.11675 50 11.4286V38.5714C50 44.8833 44.8833 50 38.5714 50H11.4286C5.11675 50 0 44.8833 0 38.5714V11.4286Z" fill="#EEEEEF"/>
<g clip-path="url(#clip0_113_2843)">
<path d="M37.258 26.9064C36.0726 26.9126 35.0423 27.1983 34.1795 27.6206C33.863 26.9934 33.5465 26.4344 33.4906 26.0245C33.4285 25.5463 33.3541 25.2544 33.4285 24.6831C33.503 24.1117 33.8382 23.2982 33.832 23.236C33.8258 23.1739 33.7575 22.8821 33.0748 22.8758C32.392 22.8696 31.8024 23.0063 31.7341 23.1864C31.6659 23.3665 31.5355 23.7764 31.4486 24.1987C31.3307 24.8197 30.0832 27.0368 29.3694 28.1982C29.1397 27.7448 28.9411 27.3473 28.8977 27.0306C28.8356 26.5524 28.7611 26.2605 28.8356 25.6892C28.9101 25.1178 29.2453 24.3042 29.2391 24.2421C29.2329 24.18 29.1646 23.8881 28.4818 23.8819C27.7991 23.8757 27.2095 24.0124 27.1412 24.1925C27.0729 24.3726 26.9985 24.7949 26.8557 25.2048C26.713 25.6146 25.0558 29.3161 24.6213 30.2725C24.3979 30.7631 24.2055 31.1543 24.0689 31.4214C24.0689 31.4214 24.0627 31.44 24.0441 31.4711C23.9262 31.7009 23.8579 31.8251 23.8579 31.8251C23.8579 31.8251 23.8579 31.8251 23.8579 31.8313C23.7648 31.999 23.6655 32.1542 23.6158 32.1542C23.5786 32.1542 23.5103 31.7071 23.6283 31.0984C23.8765 29.8129 24.4661 27.8131 24.4599 27.7448C24.4599 27.7076 24.5717 27.3598 24.0751 27.1797C23.591 26.9996 23.4172 27.2977 23.3738 27.2977C23.3303 27.2977 23.2993 27.4032 23.2993 27.4032C23.2993 27.4032 23.8393 25.1551 22.269 25.1551C21.2883 25.1551 19.9353 26.2295 19.265 27.1983C18.8429 27.4281 17.943 27.9187 16.9809 28.4466C16.6147 28.6515 16.2361 28.8565 15.8824 29.049C15.8575 29.0242 15.8327 28.9931 15.8079 28.9683C13.9086 26.9375 10.3957 25.5029 10.5446 22.7765C10.6005 21.7828 10.9419 19.1744 17.2913 16.0071C22.5173 13.4298 26.6757 14.144 27.3957 15.7276C28.426 17.9882 25.1675 22.1865 19.7677 22.7951C17.7071 23.0249 16.6272 22.23 16.3541 21.9319C16.0686 21.6213 16.0251 21.6027 15.9196 21.6648C15.7458 21.758 15.8575 22.0374 15.9196 22.1989C16.081 22.6212 16.7451 23.3665 17.8685 23.7329C18.8615 24.0558 21.2759 24.2359 24.1993 23.1056C27.4702 21.8387 30.0273 18.3174 29.2763 15.3674C28.5253 12.374 23.56 11.3866 18.8615 13.0572C16.0686 14.0508 13.0397 15.6159 10.8612 17.6529C8.27301 20.0749 7.86337 22.1803 8.03095 23.0622C8.633 26.1922 12.9466 28.2292 14.6721 29.7384C14.5852 29.788 14.5045 29.8315 14.4362 29.8688C13.5735 30.2973 10.284 32.0176 9.46469 33.8372C8.53369 35.8991 9.61365 37.3772 10.3274 37.5759C12.5432 38.1907 14.821 37.0853 16.0437 35.2594C17.2664 33.4336 17.1175 31.0612 16.5527 29.9744C16.5465 29.9619 16.5403 29.9495 16.5278 29.9371C16.7513 29.8067 16.9809 29.67 17.2044 29.5396C17.645 29.2788 18.0795 29.0366 18.4519 28.8378C18.2409 29.4154 18.0857 30.1048 18.0112 31.0984C17.9181 32.266 18.396 33.7813 19.0229 34.3775C19.3022 34.6384 19.6312 34.6446 19.8422 34.6446C20.5746 34.6446 20.9035 34.036 21.2697 33.3156C21.7166 32.4337 22.12 31.409 22.12 31.409C22.12 31.409 21.6173 34.1788 22.9828 34.1788C23.4793 34.1788 23.982 33.5329 24.2055 33.2038C24.2055 33.21 24.2055 33.21 24.2055 33.21C24.2055 33.21 24.2179 33.1914 24.2427 33.1479C24.2924 33.0671 24.3234 33.0175 24.3234 33.0175C24.3234 33.0175 24.3234 33.0113 24.3234 33.005C24.522 32.6573 24.9689 31.8685 25.633 30.5581C26.4895 28.8689 27.315 26.7574 27.315 26.7574C27.315 26.7574 27.3895 27.2728 27.6439 28.1299C27.7929 28.6329 28.1032 29.1856 28.3515 29.7197C28.1529 29.9992 28.0288 30.1545 28.0288 30.1545C28.0288 30.1545 28.0288 30.1545 28.035 30.1607C27.8736 30.3718 27.6998 30.6016 27.5074 30.8252C26.8309 31.6325 26.024 32.5579 25.9123 32.8249C25.782 33.1417 25.813 33.3715 26.0613 33.5578C26.2412 33.6944 26.564 33.713 26.8929 33.6944C27.5012 33.6509 27.9295 33.5019 28.1405 33.4087C28.4694 33.2907 28.8542 33.1106 29.2142 32.8436C29.8783 32.3529 30.2818 31.6512 30.2445 30.7258C30.2259 30.2166 30.0583 29.7073 29.8535 29.2291C29.9156 29.1422 29.9714 29.0552 30.0335 28.9683C31.0824 27.4343 31.8955 25.7513 31.8955 25.7513C31.8955 25.7513 31.97 26.2667 32.2245 27.1238C32.3486 27.5585 32.6031 28.0305 32.8265 28.4901C31.8396 29.2912 31.2314 30.2228 31.0142 30.8314C30.6231 31.9617 30.9273 32.4709 31.5045 32.5889C31.7652 32.6448 32.1376 32.5206 32.4107 32.4026C32.7582 32.2908 33.1679 32.0983 33.5589 31.8126C34.223 31.322 34.8623 30.6389 34.825 29.7135C34.8064 29.2912 34.6947 28.8751 34.5395 28.4714C35.3774 28.1237 36.4574 27.9311 37.8353 28.0926C40.7896 28.4404 41.3731 30.2849 41.2613 31.0612C41.1496 31.8375 40.5289 32.2598 40.3241 32.3902C40.1193 32.5206 40.051 32.5641 40.0697 32.6573C40.0945 32.7939 40.1938 32.7877 40.3676 32.7628C40.6096 32.7194 41.9192 32.1356 41.9751 30.7072C42.0682 28.8813 40.3303 26.8878 37.258 26.9064ZM14.4672 34.5949C13.4866 35.6631 12.1211 36.0668 11.5315 35.7252C10.8984 35.3588 11.1467 33.7813 12.3508 32.651C13.0832 31.9617 14.0266 31.322 14.6534 30.9308C14.7962 30.8438 15.0072 30.7196 15.2617 30.5643C15.3051 30.5395 15.33 30.5271 15.33 30.5271C15.3796 30.496 15.4293 30.465 15.4789 30.4339C15.9196 32.0486 15.4975 33.4708 14.4672 34.5949ZM21.6049 29.7384C21.2635 30.5706 20.5498 32.7007 20.1153 32.5827C19.7429 32.4834 19.5132 30.8687 20.0408 29.2726C20.3077 28.4714 20.8725 27.515 21.2015 27.1424C21.7352 26.5462 22.3249 26.3475 22.4676 26.5897C22.6476 26.9064 21.8159 29.2167 21.6049 29.7384ZM27.495 32.5579C27.3522 32.6324 27.2157 32.6821 27.1536 32.6448C27.1102 32.62 27.2157 32.5206 27.2157 32.5206C27.2157 32.5206 27.9543 31.7257 28.246 31.3655C28.4136 31.1543 28.6122 30.9059 28.8232 30.6265C28.8232 30.6513 28.8232 30.6823 28.8232 30.7072C28.8232 31.6574 27.9046 32.2971 27.495 32.5579ZM32.0383 31.5208C31.9327 31.4462 31.9514 31.1978 32.3051 30.4215C32.4417 30.1172 32.7644 29.6079 33.3168 29.1173C33.3789 29.3161 33.4223 29.5086 33.4161 29.6887C33.4099 30.8873 32.5534 31.3344 32.0383 31.5208Z" fill="#CD6799"/>
</g>
<defs>
<clipPath id="clip0_113_2843">
<rect width="34" height="25.5" fill="white" transform="translate(8 12.25)"/>
</clipPath>
</defs>
</svg>
